<?xml version="1.0" standalone="no"?>
<!DOCTYPE svg PUBLIC "-//W3C//DTD SVG 20010904//EN"
 "http://www.w3.org/TR/2001/REC-SVG-20010904/DTD/svg10.dtd">
<svg version="1.0" xmlns="http://www.w3.org/2000/svg"
 width="512.000000pt" height="512.000000pt" viewBox="0 0 512.000000 512.000000"
 preserveAspectRatio="xMidYMid meet">
<metadata>
Created by potrace 1.14, written by Peter Selinger 2001-2017
</metadata>
<g transform="translate(0.000000,512.000000) scale(0.100000,-0.100000)"
fill="#000000" stroke="none">
<path d="M745 5105 c-380 -72 -664 -358 -733 -740 -9 -52 -9 -3557 0 -3610 15
-85 40 -163 80 -245 113 -234 325 -408 587 -483 l76 -22 1780 -2 c1708 -1
1784 -1 1867 17 338 73 597 321 690 662 l23 83 0 1775 c0 976 -3 1795 -7 1820
-46 292 -248 557 -520 679 -57 26 -113 44 -203 68 -16 4 -826 8 -1800 9 -1428
2 -1784 -1 -1840 -11z m3616 -431 c162 -58 274 -177 320 -339 21 -74 21 -3475
0 -3550 -51 -186 -209 -328 -391 -352 -36 -5 -832 -8 -1770 -7 -1860 2 -1729
-2 -1847 57 -102 52 -199 177 -234 302 -21 75 -21 3476 0 3550 55 194 216 334
411 358 14 1 797 2 1740 1 1684 -1 1716 -1 1771 -20z"/>
<path d="M1830 3565 c-102 -21 -174 -78 -217 -171 -53 -116 -31 -243 60 -336
122 -125 315 -123 439 6 200 210 3 561 -282 501z"/>
<path d="M3229 3569 c-79 -12 -159 -62 -204 -130 -115 -174 -26 -412 175 -464
189 -49 377 93 381 289 5 187 -163 332 -352 305z"/>
<path d="M1523 2215 c-22 -7 -50 -21 -62 -32 -29 -27 -51 -84 -46 -124 5 -37
93 -219 107 -219 4 0 8 -5 8 -11 0 -18 92 -128 161 -195 173 -164 371 -265
633 -320 82 -18 289 -24 391 -12 373 44 707 254 902 566 62 99 92 176 87 220
-11 83 -79 139 -160 129 -56 -6 -98 -37 -125 -95 -122 -257 -348 -437 -638
-509 -41 -10 -118 -17 -205 -18 -147 -2 -261 17 -385 65 -202 79 -367 227
-471 425 -52 99 -62 110 -114 128 -34 12 -49 12 -83 2z"/>
</g>
</svg>
